<?xml version="1.0" encoding="UTF-8"?>
<svg id="Layer_1" xmlns="http://www.w3.org/2000/svg" version="1.1" xmlns:xlink="http://www.w3.org/1999/xlink" viewBox="0 0 115 30">
  <!-- Generator: Adobe Illustrator 29.6.1, SVG Export Plug-In . SVG Version: 2.1.1 Build 9)  -->
  <defs>
    <style>
      .st0 {
        fill: #fff;
      }

      .st1 {
        fill: url(#linear-gradient);
      }
    </style>
    <linearGradient id="linear-gradient" x1="30.8" y1="6.8" x2="2.1" y2="23.3" gradientUnits="userSpaceOnUse">
      <stop offset=".2" stop-color="#ff5a78"/>
      <stop offset=".8" stop-color="#7864ff"/>
      <stop offset="1" stop-color="#00b4e6"/>
    </linearGradient>
  </defs>
  <g>
    <path class="st0" d="M51.3,20.7h-1.5v-5.1h-5.6v5.1h-1.5v-11.2h1.5v4.8h5.6v-4.8h1.5v11.2Z"/>
    <path class="st0" d="M57.9,16.2l-3.8-6.7h1.7l2.6,4.7c.2.3.3.5.3.6h0c0-.1.1-.3.3-.6l2.6-4.7h1.7l-3.8,6.7v4.5h-1.5v-4.5Z"/>
    <path class="st0" d="M65.7,9.5h1.6l2.7,8.2c.2.7.3,1.1.4,1.5h0c0-.4.2-.8.4-1.5l2.7-8.2h1.6l-3.9,11.2h-1.6l-3.9-11.2Z"/>
    <path class="st0" d="M78,20.7v-11.2h1.5v11.2h-1.5Z"/>
    <path class="st0" d="M83.4,9.5h4.1c2.9,0,3.7,1.6,3.7,3.3s-.6,2.6-2.5,3.1l2.9,4.8h-1.7l-2.7-4.6h-2.3v4.6h-1.5v-11.2ZM87.3,10.7h-2.5v4h2.5c1.7,0,2.3-.9,2.3-2s-.6-2-2.3-2Z"/>
    <path class="st0" d="M98.2,9.5h1.5l4.2,11.2h-1.5l-1.1-3.2h-4.6l-1.1,3.2h-1.5l4.2-11.2ZM100.8,16.2l-1.6-4.4c0-.3-.2-.5-.3-.9h0c0,.3-.2.6-.3.9l-1.6,4.4h3.7Z"/>
    <path class="st0" d="M106.7,9.5h1.5v9.9h5.2v1.3h-6.7v-11.2Z"/>
  </g>
  <rect class="st1" x="2.4" y="1.1" width="28" height="28" rx="7" ry="7"/>
  <path class="st0" d="M21,14.6l1.5-6.1c0-.2-.1-.5-.4-.5h-2.6c-.2,0-.4.1-.4.3l-1.6,6.4c0,.2-.2.3-.4.3h-3.1c-.2,0-.4-.2-.4-.5l1-4c0-.2-.1-.5-.4-.5h-1.5c-.9,0-1.7.6-1.9,1.5l-2.1,8.6c0,.3.1.5.4.5h2.7c.2,0,.3-.1.4-.3l.4-1.7c0-.1.1-.2.2-.2l11.1-3.2c.2,0,.1-.4,0-.4h-2.5c-.2,0-.4-.2-.4-.5Z"/>
  <path class="st0" d="M16.5,18.9c-.2.8-.6,2.3-.7,2.9s0,.2.2.2h1.3c1.1,0,2.1-.8,2.4-1.9l.3-1.4c.1-.4-.2-.8-.7-.8-.7,0-1.6.1-2.3.3s-.5.3-.5.6Z"/>
</svg>